<svg fill="none" height="24" viewBox="0 0 24 24" width="24" xmlns="http://www.w3.org/2000/svg"><g fill="#000"><path d="m17 20.75h-10c-3.44 0-5.75-2.31-5.75-5.75v-6c0-3.44 2.31-5.75 5.75-5.75h10c3.44 0 5.75 2.31 5.75 5.75v6c0 3.44-2.31 5.75-5.75 5.75zm-10-16c-2.58 0-4.25 1.67-4.25 4.25v6c0 2.58 1.67 4.25 4.25 4.25h10c2.58 0 4.25-1.67 4.25-4.25v-6c0-2.58-1.67-4.25-4.25-4.25z"/><path d="m10.5897 15.5302c-.29 0-.57-.07-.82005-.21-.58-.33-.92004-1-.92004-1.83v-2.96c0-.82998.33004-1.49997.92004-1.82997.58005-.33 1.32995-.27003 2.03995.15997l2.4701 1.48c.68.41 1.0699 1.02 1.0699 1.67s-.3899 1.26-1.0699 1.67l-2.4701 1.48c-.41.24-.8299.37-1.2199.37zm0-5.55998c-.04 0-.0701.00999-.0901.01999-.07.03999-.15.21999-.15.52999v2.96c0 .3.08.48.15.53.08.04.2701.02.5301-.14l2.4699-1.48c.25-.15.3401-.3.3401-.39s-.0901-.23-.3401-.39l-2.4699-1.48c-.18-.11-.34-.15998-.44-.15998z"/></g></svg>